<svg width="100" height="30" fill="none" xmlns="http://www.w3.org/2000/svg"><path d="M35.04 16.56c-.86-.46-1.3-.86-1.3-1.4 0-.68.62-1.12 1.58-1.12 1.12 0 2.12.46 2.12.46l.78-2.4s-.72-.56-2.84-.56c-2.96 0-5.02 1.7-5.02 4.08 0 1.36.96 2.38 2.24 3.12 1.04.58 1.4 1 1.4 1.62 0 .64-.52 1.16-1.48 1.16-1.42 0-2.78-.74-2.78-.74l-.84 2.4s1.24.84 3.34.84c3.04 0 5.24-1.5 5.24-4.2-.02-1.46-1.12-2.5-2.44-3.26Zm12.12-5.06c-1.5 0-2.68.72-3.58 1.8l-.04-.02 1.3-6.8h-3.38l-3.3 17.32h3.38l1.12-5.92c.44-2.24 1.6-3.62 2.68-3.62.76 0 1.06.52 1.06 1.26 0 .46-.04 1.04-.14 1.5l-1.28 6.78h3.38l1.32-7c.14-.74.24-1.62.24-2.22.02-1.92-.98-3.08-2.76-3.08Zm10.44 0c-4.08 0-6.78 3.68-6.78 7.78 0 2.62 1.62 4.74 4.66 4.74 4 0 6.7-3.58 6.7-7.78.02-2.42-1.4-4.74-4.58-4.74Zm-1.66 9.94c-1.16 0-1.64-.98-1.64-2.22 0-1.94 1-5.1 2.84-5.1 1.2 0 1.6 1.04 1.6 2.04 0 2.08-1.02 5.28-2.8 5.28Zm14.92-9.94c-2.28 0-3.58 2.02-3.58 2.02h-.04l.2-1.82h-3c-.14 1.22-.42 3.1-.68 4.5L61.4 28.6h3.38l.94-5.02h.08s.7.44 1.98.44c3.98 0 6.58-4.08 6.58-8.2 0-2.28-1.02-4.32-3.5-4.32Zm-3.24 9.98c-.88 0-1.4-.5-1.4-.5l.56-3.16c.4-2.12 1.5-3.52 2.68-3.52 1.04 0 1.36.96 1.36 1.86 0 2.2-1.3 5.32-3.2 5.32ZM79.2 6.64c-1.08 0-1.94.86-1.94 1.96 0 1 .64 1.7 1.6 1.7h.04c1.06 0 1.96-.72 1.98-1.96 0-.98-.66-1.7-1.68-1.7Zm-4.74 17.14h3.38l2.3-12h-3.4l-2.28 12Zm14.3-12.02H86.4l.12-.56c.2-1.16.88-2.18 2.02-2.18.6 0 1.08.18 1.08.18l.66-2.66s-.58-.3-1.84-.3c-1.2 0-2.4.34-3.32 1.12-1.16.98-1.7 2.4-1.96 3.84l-.1.56h-1.58l-.5 2.56h1.58l-1.8 9.48h3.38l1.8-9.48h2.34l.48-2.56Zm8.16.02s-2.12 5.34-3.06 8.26h-.04c-.06-.94-.84-8.26-.84-8.26h-3.56l2.04 11.02c.04.24.02.4-.08.56-.4.76-1.06 1.5-1.84 2.04-.64.46-1.36.76-1.92.96l.94 2.88c.68-.14 2.12-.72 3.32-1.84 1.54-1.44 2.98-3.68 4.44-6.72l4.14-8.9h-3.54ZM16.741 4.01s-.314.089-.83.246a6.56 6.56 0 0 0-.403-.986c-.582-1.12-1.456-1.725-2.487-1.725a.84.84 0 0 0-.224.022c-.023-.044-.068-.067-.09-.112-.448-.492-1.03-.716-1.726-.694-1.344.045-2.689 1.008-3.765 2.733-.762 1.21-1.344 2.733-1.501 3.92-1.547.47-2.622.807-2.645.83-.784.246-.806.268-.896 1.007C2.039 9.811 0 25.605 0 25.605l16.943 2.934V3.964c-.09.023-.157.023-.202.045Zm-3.922 1.209c-.896.269-1.883.582-2.846.874.269-1.053.807-2.106 1.434-2.8.247-.247.583-.538.964-.717.38.806.47 1.904.448 2.643Zm-1.815-3.562c.314 0 .582.067.807.202-.359.179-.718.47-1.054.806-.851.919-1.501 2.352-1.77 3.719-.807.246-1.614.493-2.353.717.47-2.128 2.286-5.377 4.37-5.444ZM8.382 13.978c.09 1.434 3.877 1.748 4.1 5.13.158 2.666-1.411 4.48-3.674 4.615-2.735.18-4.236-1.434-4.236-1.434l.583-2.464s1.501 1.143 2.711 1.053c.785-.045 1.076-.695 1.054-1.143-.112-1.881-3.205-1.77-3.407-4.86-.18-2.577 1.524-5.198 5.29-5.444 1.456-.09 2.195.268 2.195.268l-.851 3.226s-.964-.448-2.107-.358c-1.658.112-1.68 1.165-1.658 1.411Zm5.334-9.028c0-.672-.09-1.635-.404-2.442 1.031.202 1.524 1.344 1.748 2.039-.403.112-.851.246-1.345.403Zm3.787 23.5 7.037-1.747S21.515 6.248 21.492 6.114a.261.261 0 0 0-.246-.224c-.112 0-2.085-.045-2.085-.045s-1.21-1.165-1.658-1.613V28.45Z" fill="#939EAA"/></svg>